<svg xmlns="http://www.w3.org/2000/svg" viewBox="0 0 124.61 138.13"><defs><style>.cls-1{fill:#d9d9d9;}.cls-1,.cls-2{fill-rule:evenodd;}.cls-2{fill:#5271ff;}</style></defs><g id="Layer_2" data-name="Layer 2"><g id="Layer_1-2" data-name="Layer 1"><path class="cls-1" d="M90.69,26.13l10.18.18L99.53,16.13,89,16Z"/><path class="cls-2" d="M101.36,26.42l1.73,15.31,15.78-.3L116.61,26Z"/><path class="cls-2" d="M113.76,16.59l1.08,9.47,9.77-.18-1.39-9.56Z"/><path class="cls-1" d="M103.26,5.73l1.07,9.49,9.78-.19-1.4-9.56Z"/><path class="cls-1" d="M28.9,36.82H62.34q8.1,0,12.13,4.35l0-20H62.78a19.65,19.65,0,0,0,.15-2.32A18.77,18.77,0,0,0,43,0a19,19,0,0,0-17.3,15.67,18,18,0,0,0-.13,5.42H9.77L0,114.13H28.9ZM42.21,4.7A14.23,14.23,0,0,1,58.37,18.81a13.71,13.71,0,0,1-.19,2.32H30.08c0-.05,0-.1,0-.15A14.32,14.32,0,0,1,42.21,4.7Z"/><path class="cls-2" d="M101.82,44.13l-25.3.07A22,22,0,0,1,78.46,54v49.83c.08.89.73,8.85-4.55,13.4a17.48,17.48,0,0,1-6.51,3.27,17.16,17.16,0,0,1-5.06.5H29.49v17.14h82.25Z"/><path class="cls-2" d="M47.11,49.18v59.33H57.78a2.28,2.28,0,0,0,1.75-.77,2.66,2.66,0,0,0,.73-1.83V51.78A2.57,2.57,0,0,0,59.53,50a2.26,2.26,0,0,0-1.75-.79Z"/></g></g></svg>